<mxfile host="app.diagrams.net" agent="Mozilla/5.0 (Windows NT 10.0; Win64; x64) AppleWebKit/537.36 (KHTML, like Gecko) Chrome/135.0.0.0 Safari/537.36" version="27.0.6">
  <diagram name="Page-1" id="OFOnhctFp7M1CrrL2vQC">
    <mxGraphModel dx="898" dy="750" grid="1" gridSize="10" guides="1" tooltips="1" connect="1" arrows="1" fold="1" page="1" pageScale="1" pageWidth="827" pageHeight="1169" math="0" shadow="0">
      <root>
        <mxCell id="0" />
        <mxCell id="1" parent="0" />
        <mxCell id="1n6aaUzNF8a3s-r--wuR-1" value="" style="rounded=0;whiteSpace=wrap;html=1;" parent="1" vertex="1">
          <mxGeometry x="160" y="80" width="520" height="480" as="geometry" />
        </mxCell>
        <mxCell id="1n6aaUzNF8a3s-r--wuR-2" value="&lt;b&gt;&lt;font style=&quot;font-size: 14px; color: light-dark(rgb(255, 0, 0), rgb(237, 237, 237));&quot;&gt;Logiciel de réservation&lt;/font&gt;&lt;/b&gt;" style="text;html=1;align=center;verticalAlign=middle;whiteSpace=wrap;rounded=0;" parent="1" vertex="1">
          <mxGeometry x="170" y="90" width="170" height="30" as="geometry" />
        </mxCell>
        <mxCell id="1n6aaUzNF8a3s-r--wuR-9" style="rounded=0;orthogonalLoop=1;jettySize=auto;html=1;entryX=0;entryY=0.5;entryDx=0;entryDy=0;endArrow=none;startFill=0;" parent="1" source="1n6aaUzNF8a3s-r--wuR-3" target="1n6aaUzNF8a3s-r--wuR-5" edge="1">
          <mxGeometry relative="1" as="geometry" />
        </mxCell>
        <mxCell id="1n6aaUzNF8a3s-r--wuR-11" style="rounded=0;orthogonalLoop=1;jettySize=auto;html=1;entryX=0;entryY=0.5;entryDx=0;entryDy=0;endArrow=none;startFill=0;" parent="1" source="1n6aaUzNF8a3s-r--wuR-3" target="1n6aaUzNF8a3s-r--wuR-7" edge="1">
          <mxGeometry relative="1" as="geometry" />
        </mxCell>
        <mxCell id="1n6aaUzNF8a3s-r--wuR-12" style="rounded=0;orthogonalLoop=1;jettySize=auto;html=1;entryX=0;entryY=0.5;entryDx=0;entryDy=0;endArrow=none;startFill=0;" parent="1" source="1n6aaUzNF8a3s-r--wuR-3" target="1n6aaUzNF8a3s-r--wuR-8" edge="1">
          <mxGeometry relative="1" as="geometry" />
        </mxCell>
        <mxCell id="M8qjF7BodjmgCWxe7SJt-2" style="rounded=0;orthogonalLoop=1;jettySize=auto;html=1;endArrow=block;endFill=0;" edge="1" parent="1" source="1n6aaUzNF8a3s-r--wuR-3" target="1n6aaUzNF8a3s-r--wuR-4">
          <mxGeometry relative="1" as="geometry" />
        </mxCell>
        <mxCell id="1n6aaUzNF8a3s-r--wuR-3" value="Enseignant" style="shape=umlActor;verticalLabelPosition=bottom;verticalAlign=top;html=1;outlineConnect=0;" parent="1" vertex="1">
          <mxGeometry x="60" y="380" width="30" height="60" as="geometry" />
        </mxCell>
        <mxCell id="M8qjF7BodjmgCWxe7SJt-1" style="rounded=0;orthogonalLoop=1;jettySize=auto;html=1;entryX=0;entryY=0.5;entryDx=0;entryDy=0;endArrow=none;startFill=0;" edge="1" parent="1" source="1n6aaUzNF8a3s-r--wuR-4" target="1n6aaUzNF8a3s-r--wuR-6">
          <mxGeometry relative="1" as="geometry" />
        </mxCell>
        <mxCell id="1n6aaUzNF8a3s-r--wuR-4" value="Actor" style="shape=umlActor;verticalLabelPosition=bottom;verticalAlign=top;html=1;outlineConnect=0;" parent="1" vertex="1">
          <mxGeometry x="60" y="150" width="30" height="60" as="geometry" />
        </mxCell>
        <mxCell id="1n6aaUzNF8a3s-r--wuR-5" value="Effectuer des réservations" style="ellipse;whiteSpace=wrap;html=1;" parent="1" vertex="1">
          <mxGeometry x="210" y="250" width="140" height="70" as="geometry" />
        </mxCell>
        <mxCell id="1n6aaUzNF8a3s-r--wuR-6" value="Consulter planning des salles" style="ellipse;whiteSpace=wrap;html=1;" parent="1" vertex="1">
          <mxGeometry x="210" y="140" width="140" height="70" as="geometry" />
        </mxCell>
        <mxCell id="1n6aaUzNF8a3s-r--wuR-7" value="Consulter récapitulatif horaire" style="ellipse;whiteSpace=wrap;html=1;" parent="1" vertex="1">
          <mxGeometry x="210" y="350" width="140" height="70" as="geometry" />
        </mxCell>
        <mxCell id="1n6aaUzNF8a3s-r--wuR-8" value="Editer récapitulatif horaire" style="ellipse;whiteSpace=wrap;html=1;" parent="1" vertex="1">
          <mxGeometry x="210" y="450" width="140" height="70" as="geometry" />
        </mxCell>
      </root>
    </mxGraphModel>
  </diagram>
</mxfile>
